<?xml version="1.0" encoding="UTF-8"?>
<svg xmlns="http://www.w3.org/2000/svg" viewBox="2.4 0.1 205.16 54.71"><defs><style>.cls-1{fill:#1e1e1e;}.cls-2{fill:#76b900;}.cls-3{fill:#fff;}</style></defs><title>logo-gfn</title><polygon class="cls-1" points="80.24 0.1 65.58 54.81 65.58 54.81 190.16 54.81 204.82 0.1 80.24 0.1"/><polygon class="cls-2" points="204.82 0.1 190.16 54.81 192.9 54.81 207.56 0.1 204.82 0.1"/><polygon class="cls-2" points="2.4 0.1 2.4 54.81 65.58 54.81 80.24 0.1 2.4 0.1"/><path class="cls-3" d="M91.22,29.24l6.58,9.68V29.24h2.82V43.82h-2.9l-6.59-9.66v9.66H88.31V29.24Z"/><path class="cls-3" d="M103,31.68a2.43,2.43,0,0,1,2.41-2.44h7.31a2.43,2.43,0,0,1,2.41,2.44V41.4a2.41,2.41,0,0,1-2.41,2.42h-7.31A2.41,2.41,0,0,1,103,41.4Zm8.59,9.55a.72.72,0,0,0,.72-.72V32.58a.74.74,0,0,0-.72-.75h-5a.74.74,0,0,0-.72.75v7.93a.72.72,0,0,0,.72.72Z"/><path class="cls-3" d="M125.49,29.24h2.39l3,9.93,2.67-9.93h2.9l-4.4,14.58h-2.47l-3-9.39-2.79,9.39h-2.48l-4.67-14.58h3.15l2.84,9.93Z"/><path class="cls-3" d="M139.31,29.24v.23h-.65v1.77h-.26V29.47h-.61v-.23Zm1.92,0h.26v2h-.25V29.69l-.59,1h-.22l-.54-.95v1.51h-.27v-2h.25l.67,1.17Z"/><path class="cls-3" d="M88.31,13.52a2.43,2.43,0,0,1,2.44-2.43H100v2.62h-8a.76.76,0,0,0-.75.73v6.84a.74.74,0,0,0,.21.51l1,1A.7.7,0,0,0,93,23h3.91a.72.72,0,0,0,.73-.73V19.68H94.15V17.05h6.32v6.19A2.43,2.43,0,0,1,98,25.66h-6.5a.73.73,0,0,1-.53-.21L88.53,23a.75.75,0,0,1-.22-.52Z"/><path class="cls-3" d="M105.82,13.67v3.42h5.92v2.59h-5.92v3.39h7.37v2.59H103V11.09h10.21v2.58Z"/><path class="cls-3" d="M118.16,25.66h-2.85V11.09h10.22v2.58h-7.37v3.42h5.91v2.59h-5.91Z"/><path class="cls-3" d="M127.55,13.52A2.43,2.43,0,0,1,130,11.09h7.31a2.43,2.43,0,0,1,2.41,2.43v9.72a2.41,2.41,0,0,1-2.41,2.42H130a2.41,2.41,0,0,1-2.41-2.42Zm8.59,9.55a.72.72,0,0,0,.72-.72V14.42a.74.74,0,0,0-.72-.75h-5a.74.74,0,0,0-.72.75v7.93a.72.72,0,0,0,.72.72Z"/><path class="cls-3" d="M154.24,25.66h-3.06l-3.59-5.94h-2.67v5.94H142.1V11.09h8.74a2.43,2.43,0,0,1,2.43,2.43v3.76a2.43,2.43,0,0,1-2.43,2.44h-.17Zm-9.32-8.53h4.74a.72.72,0,0,0,.73-.72v-2a.74.74,0,0,0-.73-.75h-4.74Z"/><path class="cls-3" d="M165.47,13.67h-6.18a.73.73,0,0,0-.72.73v8a.72.72,0,0,0,.72.72h6.18v2.59h-7.29a2.43,2.43,0,0,1-2.43-2.42V13.52a2.43,2.43,0,0,1,2.43-2.43h7.29Z"/><path class="cls-3" d="M170.64,13.67v3.42h5.92v2.59h-5.92v3.39H178v2.59H167.8V11.09H178v2.58Z"/></svg>